<svg xmlns="http://www.w3.org/2000/svg" width="196" height="20" viewBox="0 0 196 20" role="img" aria-labelledby="title desc">
  <title id="title">B.R.A.N.C.H. - Carry the Ribbon</title>
  <desc id="desc">Compact B.R.A.N.C.H. Blue Ribbon repository carrier badge</desc>
  <clipPath id="r"><rect width="196" height="20" rx="3"/></clipPath>
  <g clip-path="url(#r)">
    <rect width="82" height="20" fill="#24292f"/>
    <rect x="82" width="114" height="20" fill="#0969da"/>
    <path d="M91 4c3.9 0 6.9 2.8 7.7 6.6l-3.5 1.4c-.2-2.5-1.9-4.5-4.2-4.5-2.5 0-4.4 2.2-4.4 4.8 0 2 1.1 3.7 2.8 4.4l-2.4 2.4c-2.4-1.3-4-3.9-4-6.9C83 7.8 86.6 4 91 4Z" fill="#f6f8fa"/>
    <path d="M98.6 10.6c1.8.9 2.9 2.8 2.9 4.9 0 .2 0 .3-.1.5h-3.8c.1-.2.1-.4.1-.6 0-1-.6-1.9-1.5-2.3l2.4-2.5Z" fill="#f6f8fa"/>
  </g>
  <text x="8" y="14" fill="#f6f8fa" font-family="Inter,Arial,sans-serif" font-size="11" font-weight="600">B.R.A.N.C.H.</text>
  <text x="108" y="14" fill="#f6f8fa" font-family="Inter,Arial,sans-serif" font-size="11" font-weight="600">carry ribbon</text>
</svg>
